<mxfile host="app.diagrams.net" modified="2022-03-04T06:13:38.618Z" agent="5.0 (Macintosh; Intel Mac OS X 10_15_7) AppleWebKit/537.36 (KHTML, like Gecko) Chrome/99.0.4844.51 Safari/537.36" etag="_y4WIsfpaFbTVxQDcRr5" version="16.6.5" type="github">
  <diagram id="9ZpSaxzcpz4ULXaL1X-T" name="第 1 页">
    <mxGraphModel dx="946" dy="614" grid="1" gridSize="10" guides="1" tooltips="1" connect="1" arrows="1" fold="1" page="1" pageScale="1" pageWidth="827" pageHeight="1169" background="none" math="0" shadow="0">
      <root>
        <mxCell id="0" />
        <mxCell id="1" parent="0" />
        <mxCell id="QuoUFKUlMbN6moup9SOk-3" value="消息长度" style="rounded=0;whiteSpace=wrap;html=1;fillStyle=auto;fillColor=#e1d5e7;gradientDirection=north;sketch=1;strokeColor=#9673a6;" parent="1" vertex="1">
          <mxGeometry x="120" y="100" width="120" height="50" as="geometry" />
        </mxCell>
        <mxCell id="QuoUFKUlMbN6moup9SOk-5" value="序号" style="rounded=0;whiteSpace=wrap;html=1;fillStyle=auto;fillColor=#e1d5e7;gradientDirection=north;sketch=1;strokeColor=#9673a6;" parent="1" vertex="1">
          <mxGeometry x="240" y="100" width="70" height="50" as="geometry" />
        </mxCell>
        <mxCell id="MB-VqiBG7htkjkmLjJ8e-6" value="响应字段数" style="rounded=0;whiteSpace=wrap;html=1;fillStyle=auto;fillColor=#e1d5e7;gradientDirection=north;sketch=1;strokeColor=#9673a6;" parent="1" vertex="1">
          <mxGeometry x="310" y="100" width="290" height="50" as="geometry" />
        </mxCell>
        <mxCell id="i-7tSpso-G0HtrBFlRGV-1" value="" style="shape=curlyBracket;whiteSpace=wrap;html=1;rounded=1;flipH=1;sketch=1;fillColor=#e1d5e7;strokeColor=#9673a6;" vertex="1" parent="1">
          <mxGeometry x="600" y="100" width="20" height="50" as="geometry" />
        </mxCell>
        <mxCell id="i-7tSpso-G0HtrBFlRGV-2" value="列数量" style="text;html=1;strokeColor=none;fillColor=none;align=center;verticalAlign=middle;whiteSpace=wrap;rounded=0;sketch=1;" vertex="1" parent="1">
          <mxGeometry x="616" y="115" width="50" height="20" as="geometry" />
        </mxCell>
        <mxCell id="i-7tSpso-G0HtrBFlRGV-3" value="消息长度" style="rounded=0;whiteSpace=wrap;html=1;fillStyle=auto;fillColor=#d5e8d4;gradientDirection=north;sketch=1;strokeColor=#82b366;" vertex="1" parent="1">
          <mxGeometry x="120" y="150" width="120" height="50" as="geometry" />
        </mxCell>
        <mxCell id="i-7tSpso-G0HtrBFlRGV-4" value="序号" style="rounded=0;whiteSpace=wrap;html=1;fillStyle=auto;fillColor=#d5e8d4;gradientDirection=north;sketch=1;strokeColor=#82b366;" vertex="1" parent="1">
          <mxGeometry x="240" y="150" width="70" height="50" as="geometry" />
        </mxCell>
        <mxCell id="i-7tSpso-G0HtrBFlRGV-5" value="目录名称" style="rounded=0;whiteSpace=wrap;html=1;fillStyle=auto;fillColor=#d5e8d4;gradientDirection=north;sketch=1;strokeColor=#82b366;" vertex="1" parent="1">
          <mxGeometry x="310" y="150" width="90" height="50" as="geometry" />
        </mxCell>
        <mxCell id="i-7tSpso-G0HtrBFlRGV-6" value="数据库名称" style="rounded=0;whiteSpace=wrap;html=1;fillStyle=auto;fillColor=#d5e8d4;gradientDirection=north;sketch=1;strokeColor=#82b366;" vertex="1" parent="1">
          <mxGeometry x="400" y="150" width="100" height="50" as="geometry" />
        </mxCell>
        <mxCell id="i-7tSpso-G0HtrBFlRGV-7" value="数据库原始名称" style="rounded=0;whiteSpace=wrap;html=1;fillStyle=auto;fillColor=#d5e8d4;gradientDirection=north;sketch=1;strokeColor=#82b366;" vertex="1" parent="1">
          <mxGeometry x="500" y="150" width="100" height="50" as="geometry" />
        </mxCell>
        <mxCell id="i-7tSpso-G0HtrBFlRGV-14" value="列字段名称" style="rounded=0;whiteSpace=wrap;html=1;fillStyle=auto;fillColor=#d5e8d4;gradientDirection=north;sketch=1;strokeColor=#82b366;" vertex="1" parent="1">
          <mxGeometry x="120" y="200" width="90" height="50" as="geometry" />
        </mxCell>
        <mxCell id="i-7tSpso-G0HtrBFlRGV-15" value="列原始名称" style="rounded=0;whiteSpace=wrap;html=1;fillStyle=auto;fillColor=#d5e8d4;gradientDirection=north;sketch=1;strokeColor=#82b366;" vertex="1" parent="1">
          <mxGeometry x="210" y="200" width="100" height="50" as="geometry" />
        </mxCell>
        <mxCell id="i-7tSpso-G0HtrBFlRGV-16" value="字符编码" style="rounded=0;whiteSpace=wrap;html=1;fillStyle=auto;fillColor=#d5e8d4;gradientDirection=north;sketch=1;strokeColor=#82b366;" vertex="1" parent="1">
          <mxGeometry x="310" y="200" width="90" height="50" as="geometry" />
        </mxCell>
        <mxCell id="i-7tSpso-G0HtrBFlRGV-17" value="列字段长度" style="rounded=0;whiteSpace=wrap;html=1;fillStyle=auto;fillColor=#d5e8d4;gradientDirection=north;sketch=1;strokeColor=#82b366;" vertex="1" parent="1">
          <mxGeometry x="400" y="200" width="100" height="50" as="geometry" />
        </mxCell>
        <mxCell id="i-7tSpso-G0HtrBFlRGV-18" value="列字段类型" style="rounded=0;whiteSpace=wrap;html=1;fillStyle=auto;fillColor=#d5e8d4;gradientDirection=north;sketch=1;strokeColor=#82b366;" vertex="1" parent="1">
          <mxGeometry x="500" y="200" width="100" height="50" as="geometry" />
        </mxCell>
        <mxCell id="i-7tSpso-G0HtrBFlRGV-19" value="列字段标识" style="rounded=0;whiteSpace=wrap;html=1;fillStyle=auto;fillColor=#d5e8d4;gradientDirection=north;sketch=1;strokeColor=#82b366;" vertex="1" parent="1">
          <mxGeometry x="120" y="250" width="190" height="50" as="geometry" />
        </mxCell>
        <mxCell id="i-7tSpso-G0HtrBFlRGV-20" value="数值精度" style="rounded=0;whiteSpace=wrap;html=1;fillStyle=auto;fillColor=#d5e8d4;gradientDirection=north;sketch=1;strokeColor=#82b366;" vertex="1" parent="1">
          <mxGeometry x="310" y="250" width="220" height="50" as="geometry" />
        </mxCell>
        <mxCell id="i-7tSpso-G0HtrBFlRGV-21" value="EOF" style="rounded=0;whiteSpace=wrap;html=1;fillStyle=auto;fillColor=#d5e8d4;gradientDirection=north;sketch=1;strokeColor=#82b366;" vertex="1" parent="1">
          <mxGeometry x="530" y="250" width="70" height="50" as="geometry" />
        </mxCell>
        <mxCell id="i-7tSpso-G0HtrBFlRGV-22" value="" style="shape=curlyBracket;whiteSpace=wrap;html=1;rounded=1;flipH=1;fillColor=#d5e8d4;strokeColor=#82b366;sketch=1;" vertex="1" parent="1">
          <mxGeometry x="600" y="150" width="20" height="220" as="geometry" />
        </mxCell>
        <mxCell id="i-7tSpso-G0HtrBFlRGV-23" value="列信息（多个）" style="text;html=1;strokeColor=none;fillColor=none;align=center;verticalAlign=middle;whiteSpace=wrap;rounded=0;sketch=1;" vertex="1" parent="1">
          <mxGeometry x="620" y="250" width="90" height="20" as="geometry" />
        </mxCell>
        <mxCell id="i-7tSpso-G0HtrBFlRGV-24" value="..." style="rounded=0;whiteSpace=wrap;html=1;fillStyle=auto;fillColor=#d5e8d4;gradientDirection=north;sketch=1;strokeColor=#82b366;" vertex="1" parent="1">
          <mxGeometry x="120" y="300" width="480" height="70" as="geometry" />
        </mxCell>
      </root>
    </mxGraphModel>
  </diagram>
</mxfile>
